<?xml version="1.0" encoding="utf-8"?>
<!-- Generator: Adobe Illustrator 21.1.0, SVG Export Plug-In . SVG Version: 6.00 Build 0)  -->
<svg version="1.1" id="Capa_1" xmlns="http://www.w3.org/2000/svg" xmlns:xlink="http://www.w3.org/1999/xlink" x="0px" y="0px"
	 viewBox="0 0 246.8 222.7" style="enable-background:new 0 0 246.8 222.7;" xml:space="preserve">
<style type="text/css">
	.st0{fill:#7EAEA8;}
	.st1{fill:#FFFFFF;}
	.st2{fill:#7EAEA9;}
	.st3{fill:#F6F9F9;}
	.st4{fill:#FDFEFE;}
</style>
<g id="zrO7Eu.tif">
	<g>
		<path class="st0" d="M69.7,102.8c0-2.2,0-4.3,0-6.5c1.6-1.9,3.2-4,5-5.7c2.1-2.1,4.5-3.9,6.8-5.8c12.1-10.2,24.1-20.5,36.2-30.7
			c3.1-2.6,8.8-2.6,12,0.1c3.8,3.1,7.4,6.4,11.1,9.5c1.3,1.1,2.7,2.1,4.4,3.4c0-1.9-0.1-3.2,0-4.5c0.2-3,1.4-4.1,4.4-4.2
			c3.6,0,7.2,0,10.7,0c3.4,0,4.8,1.3,4.8,4.8c0,6.5,0,13,0.1,19.5c0,1,0.6,2.1,1.4,2.8c2.4,2.3,4.9,4.4,7.5,6.5
			c3.6,3,3.8,7,2.8,10.9c-1,4-4.3,5.9-8.3,6.5c-1,0.2-2.1,0-3.3,0c0,1.1,0,2.1,0,3.1c0,13.7,0,27.5-0.1,41.2c0,2-0.9,4.1-1.4,6.1
			c-26.7,0-53.3,0-80,0c-0.7-1.7-1.9-3.4-1.9-5.1c-0.2-14.1-0.1-28.3-0.1-42.4c0-1,0-1.9,0-3C75.9,110,72,107.7,69.7,102.8z
			 M89.1,153c23,0,45.7,0,68.5,0c0.1-0.8,0.1-1.3,0.1-1.8c0-15.2,0-30.3-0.1-45.5c0-1.1-0.8-2.5-1.7-3.3c-8.4-7.4-17-14.7-25.5-22
			c-2.2-1.9-4.6-3.7-6.9-5.5c-4.6,3.9-9,7.5-13.3,11.2c-6.4,5.4-12.7,10.9-19.1,16.2c-1.4,1.2-2,2.4-2,4.2c0.1,14.5,0,29,0,43.5
			C89.1,150.9,89.1,151.8,89.1,153z M170.9,99.6c-0.9-1.2-1.5-2.2-2.4-3c-6.3-5.4-12.6-10.8-18.9-16.2c-7.5-6.5-15-13-22.6-19.5
			c-2.9-2.4-4-2.3-6.9,0.1c-8.2,7-16.4,14-24.6,20.9c-5.9,5-11.8,9.9-17.7,14.9c-1.5,1.2-2,2.9-0.8,4.4c1.2,1.6,2.8,1.3,4.3,0
			c2.1-1.9,4.3-3.6,6.5-5.4c11-9.4,22.1-18.7,33.1-28.1c1.9-1.6,3.4-1.6,5.2-0.1c9.4,8.1,18.9,16.1,28.3,24.2
			c3.7,3.2,7.4,6.5,11.2,9.5c0.7,0.6,2.1,0.8,3.1,0.5C169.5,101.7,170,100.6,170.9,99.6z M157.6,77.3c0-3.9,0-7.8,0-11.8
			c-1.9,0-3.5,0-5.2,0C151.6,70.7,151.8,75.2,157.6,77.3z"/>
		<path class="st1" d="M163.7,159.8c0.5-2,1.4-4.1,1.4-6.1c0.1-13.7,0.1-27.5,0.1-41.2c0-1,0-2,0-3.1c1.2,0,2.3,0.1,3.3,0
			c4-0.6,7.3-2.5,8.3-6.5c1-4,0.8-7.9-2.8-10.9c-2.5-2.1-5.1-4.3-7.5-6.5c-0.7-0.7-1.3-1.8-1.4-2.8c-0.1-6.5-0.1-13-0.1-19.5
			c0-3.5-1.3-4.8-4.8-4.8c-3.6,0-7.2,0-10.7,0c-3,0-4.2,1.1-4.4,4.2c-0.1,1.3,0,2.6,0,4.5c-1.7-1.3-3.1-2.3-4.4-3.4
			c-3.7-3.2-7.4-6.4-11.1-9.5c-3.2-2.6-8.9-2.7-12-0.1c-12.1,10.2-24.2,20.5-36.2,30.7c-2.3,1.9-4.7,3.7-6.8,5.8
			c-1.8,1.8-3.3,3.8-5,5.7c0-14.8,0-29.6,0-44.5c36,0,71.9,0,107.9,0c0,36,0,72,0,108C173,159.8,168.3,159.8,163.7,159.8z"/>
		<path class="st1" d="M69.7,102.8c2.4,4.9,6.2,7.1,12,6.5c0,1.1,0,2,0,3c0,14.1,0,28.3,0.1,42.4c0,1.7,1.2,3.4,1.9,5.1
			c-4.7,0-9.3,0-14,0C69.7,140.8,69.7,121.8,69.7,102.8z"/>
		<path class="st1" d="M89.1,153c0-1.2,0-2.1,0-3c0-14.5,0.1-29,0-43.5c0-1.8,0.6-3,2-4.2c6.4-5.3,12.7-10.8,19.1-16.2
			c4.3-3.7,8.7-7.3,13.3-11.2c2.3,1.8,4.6,3.6,6.9,5.5c8.5,7.3,17,14.6,25.5,22c0.9,0.8,1.7,2.2,1.7,3.3c0.1,15.2,0.1,30.3,0.1,45.5
			c0,0.5-0.1,1-0.1,1.8C134.8,153,112.2,153,89.1,153z M126.1,144.9c0-1.5,0.1-2.4,0-3.2c-0.3-2.2,0.4-3.4,2.8-3.6
			c1.3-0.1,2.5-0.8,3.7-1.4c4.1-2.3,6-5.8,5.6-10.5c-0.4-4.3-3.2-6.4-6.8-7.8c-1.2-0.5-2.6-0.7-3.8-1.2c-0.6-0.2-1.4-0.9-1.4-1.3
			c-0.1-2.6-0.1-5.3-0.1-8.5c2.9,1,5.4,1.8,8.1,2.7c0.8-2,1.6-4,2.6-6.5c-3.8-1.1-7.2-2.1-10.9-3.2c0-1.6,0-3.3,0-5
			c-4.9-0.9-5.1-0.8-5.1,3.4c0,1.7-0.8,2.1-2.3,2.6c-2.2,0.7-4.4,1.5-6.3,2.8c-5,3.4-6,13.2,1.4,16.6c1.8,0.8,3.7,1.3,5.6,2.1
			c0.5,0.2,1.3,0.7,1.4,1.1c0.1,2.6,0.1,5.3,0.1,8.6c-3.8-1.4-7.1-2.5-10.5-3.7c-0.8,1.9-1.7,3.8-2.6,5.8c3.8,3,8.4,3.5,13,4.5
			c0.1,1.8-0.3,3.9,0.5,4.9C122,144.9,124.2,144.6,126.1,144.9z"/>
		<path class="st1" d="M170.9,99.6c-0.9,1-1.4,2.1-2.1,2.3c-1,0.2-2.4,0.1-3.1-0.5c-3.8-3.1-7.4-6.4-11.2-9.5
			c-9.4-8.1-18.9-16.1-28.3-24.2c-1.8-1.6-3.4-1.5-5.2,0.1c-11,9.4-22.1,18.7-33.1,28.1c-2.1,1.8-4.3,3.6-6.5,5.4
			c-1.5,1.3-3.1,1.6-4.3,0c-1.2-1.5-0.7-3.2,0.8-4.4c5.9-5,11.8-9.9,17.7-14.9c8.2-7,16.4-13.9,24.6-20.9c2.8-2.4,4-2.5,6.9-0.1
			c7.6,6.5,15,13,22.6,19.5c6.3,5.4,12.6,10.7,18.9,16.2C169.3,97.4,169.9,98.5,170.9,99.6z"/>
		<path class="st1" d="M157.6,77.3c-5.8-2.1-6-6.7-5.2-11.8c1.6,0,3.3,0,5.2,0C157.6,69.5,157.6,73.5,157.6,77.3z"/>
		<path class="st2" d="M126.1,144.9c-1.9-0.3-4.2,0-4.9-0.9c-0.8-1-0.4-3.1-0.5-4.9c-4.5-0.9-9.1-1.4-13-4.5c0.9-2,1.8-3.9,2.6-5.8
			c3.4,1.2,6.6,2.3,10.5,3.7c0-3.4,0.1-6-0.1-8.6c0-0.4-0.8-0.9-1.4-1.1c-1.8-0.7-3.8-1.3-5.6-2.1c-7.4-3.4-6.4-13.1-1.4-16.6
			c1.9-1.3,4.1-2.1,6.3-2.8c1.4-0.5,2.3-0.9,2.3-2.6c0-4.3,0.2-4.4,5.1-3.4c0,1.7,0,3.4,0,5c3.7,1.1,7.1,2.1,10.9,3.2
			c-1,2.5-1.8,4.6-2.6,6.5c-2.7-0.9-5.2-1.7-8.1-2.7c0,3.2-0.1,5.9,0.1,8.5c0,0.5,0.8,1.1,1.4,1.3c1.2,0.5,2.6,0.7,3.8,1.2
			c3.6,1.4,6.4,3.5,6.8,7.8c0.4,4.8-1.5,8.2-5.6,10.5c-1.2,0.6-2.4,1.3-3.7,1.4c-2.4,0.2-3.1,1.3-2.8,3.6
			C126.2,142.5,126.1,143.4,126.1,144.9z M120.8,115.3c0-2.6,0-5,0-7.4c-2.3,0.5-3.9,1.6-3.9,3.8C116.8,114,118.6,114.8,120.8,115.3
			z M126.2,131.8c2.1-0.6,3.8-1.5,3.7-3.8c-0.1-2.1-1.6-3-3.7-3.2C126.2,127.1,126.2,129.3,126.2,131.8z"/>
		<path class="st3" d="M120.8,115.3c-2.1-0.6-3.9-1.4-3.9-3.6c0-2.2,1.6-3.3,3.9-3.8C120.8,110.4,120.8,112.8,120.8,115.3z"/>
		<path class="st4" d="M126.2,131.8c0-2.5,0-4.7,0-7c2.1,0.2,3.6,1.2,3.7,3.2C130.1,130.3,128.4,131.2,126.2,131.8z"/>
	</g>
</g>
</svg>
