<?xml version="1.0" encoding="utf-8"?>
<!-- Generator: Adobe Illustrator 21.1.0, SVG Export Plug-In . SVG Version: 6.00 Build 0)  -->
<svg version="1.1" id="Capa_1" xmlns="http://www.w3.org/2000/svg" xmlns:xlink="http://www.w3.org/1999/xlink" x="0px" y="0px"
	 viewBox="0 0 246.8 222.7" style="enable-background:new 0 0 246.8 222.7;" xml:space="preserve">
<style type="text/css">
	.st0{display:none;}
	.st1{display:inline;}
	.st2{fill:#7EAEA8;}
	.st3{fill:#FFFFFF;}
	.st4{fill:#7EAEA9;}
	.st5{fill:#F6F9F9;}
	.st6{fill:#FDFEFE;}
	.st7{fill:#81B0AA;}
	.st8{fill:#FEFEFE;}
	.st9{fill:#FDFEFD;}
	.st10{fill:#80AFAA;}
	.st11{fill:#FEFFFF;}
	.st12{fill:#7EA9A4;}
	.st13{fill:#84A8A3;}
	.st14{fill:#FEFFFE;}
	.st15{fill:#82B0AB;}
	.st16{fill:#86B2AD;}
	.st17{fill:#FCFDFD;}
	.st18{fill:#7DADA7;}
	.st19{fill:#79A7A1;}
	.st20{fill:#76A29C;}
	.st21{fill:#7CAAA4;}
	.st22{fill:#7C9792;}
	.st23{fill:#9DADAA;}
	.st24{fill:#7DADA8;}
	.st25{fill:#FDFDFD;}
	.st26{fill:#FCFDFC;}
</style>
<g id="zrO7Eu.tif" class="st0">
	<g class="st1">
		<path class="st2" d="M69.7,102.8c0-2.2,0-4.3,0-6.5c1.6-1.9,3.2-4,5-5.7c2.1-2.1,4.5-3.9,6.8-5.8c12.1-10.2,24.1-20.5,36.2-30.7
			c3.1-2.6,8.8-2.6,12,0.1c3.8,3.1,7.4,6.4,11.1,9.5c1.3,1.1,2.7,2.1,4.4,3.4c0-1.9-0.1-3.2,0-4.5c0.2-3,1.4-4.1,4.4-4.2
			c3.6,0,7.2,0,10.7,0c3.4,0,4.8,1.3,4.8,4.8c0,6.5,0,13,0.1,19.5c0,1,0.6,2.1,1.4,2.8c2.4,2.3,4.9,4.4,7.5,6.5
			c3.6,3,3.8,7,2.8,10.9c-1,4-4.3,5.9-8.3,6.5c-1,0.2-2.1,0-3.3,0c0,1.1,0,2.1,0,3.1c0,13.7,0,27.5-0.1,41.2c0,2-0.9,4.1-1.4,6.1
			c-26.7,0-53.3,0-80,0c-0.7-1.7-1.9-3.4-1.9-5.1c-0.2-14.1-0.1-28.3-0.1-42.4c0-1,0-1.9,0-3C75.9,110,72,107.7,69.7,102.8z
			 M89.1,153c23,0,45.7,0,68.5,0c0.1-0.8,0.1-1.3,0.1-1.8c0-15.2,0-30.3-0.1-45.5c0-1.1-0.8-2.5-1.7-3.3c-8.4-7.4-17-14.7-25.5-22
			c-2.2-1.9-4.6-3.7-6.9-5.5c-4.6,3.9-9,7.5-13.3,11.2c-6.4,5.4-12.7,10.9-19.1,16.2c-1.4,1.2-2,2.4-2,4.2c0.1,14.5,0,29,0,43.5
			C89.1,150.9,89.1,151.8,89.1,153z M170.9,99.6c-0.9-1.2-1.5-2.2-2.4-3c-6.3-5.4-12.6-10.8-18.9-16.2c-7.5-6.5-15-13-22.6-19.5
			c-2.9-2.4-4-2.3-6.9,0.1c-8.2,7-16.4,14-24.6,20.9c-5.9,5-11.8,9.9-17.7,14.9c-1.5,1.2-2,2.9-0.8,4.4c1.2,1.6,2.8,1.3,4.3,0
			c2.1-1.9,4.3-3.6,6.5-5.4c11-9.4,22.1-18.7,33.1-28.1c1.9-1.6,3.4-1.6,5.2-0.1c9.4,8.1,18.9,16.1,28.3,24.2
			c3.7,3.2,7.4,6.5,11.2,9.5c0.7,0.6,2.1,0.8,3.1,0.5C169.5,101.7,170,100.6,170.9,99.6z M157.6,77.3c0-3.9,0-7.8,0-11.8
			c-1.9,0-3.5,0-5.2,0C151.6,70.7,151.8,75.2,157.6,77.3z"/>
		<path class="st3" d="M163.7,159.8c0.5-2,1.4-4.1,1.4-6.1c0.1-13.7,0.1-27.5,0.1-41.2c0-1,0-2,0-3.1c1.2,0,2.3,0.1,3.3,0
			c4-0.6,7.3-2.5,8.3-6.5c1-4,0.8-7.9-2.8-10.9c-2.5-2.1-5.1-4.3-7.5-6.5c-0.7-0.7-1.3-1.8-1.4-2.8c-0.1-6.5-0.1-13-0.1-19.5
			c0-3.5-1.3-4.8-4.8-4.8c-3.6,0-7.2,0-10.7,0c-3,0-4.2,1.1-4.4,4.2c-0.1,1.3,0,2.6,0,4.5c-1.7-1.3-3.1-2.3-4.4-3.4
			c-3.7-3.2-7.4-6.4-11.1-9.5c-3.2-2.6-8.9-2.7-12-0.1c-12.1,10.2-24.2,20.5-36.2,30.7c-2.3,1.9-4.7,3.7-6.8,5.8
			c-1.8,1.8-3.3,3.8-5,5.7c0-14.8,0-29.6,0-44.5c36,0,71.9,0,107.9,0c0,36,0,72,0,108C173,159.8,168.3,159.8,163.7,159.8z"/>
		<path class="st3" d="M69.7,102.8c2.4,4.9,6.2,7.1,12,6.5c0,1.1,0,2,0,3c0,14.1,0,28.3,0.1,42.4c0,1.7,1.2,3.4,1.9,5.1
			c-4.7,0-9.3,0-14,0C69.7,140.8,69.7,121.8,69.7,102.8z"/>
		<path class="st3" d="M89.1,153c0-1.2,0-2.1,0-3c0-14.5,0.1-29,0-43.5c0-1.8,0.6-3,2-4.2c6.4-5.3,12.7-10.8,19.1-16.2
			c4.3-3.7,8.7-7.3,13.3-11.2c2.3,1.8,4.6,3.6,6.9,5.5c8.5,7.3,17,14.6,25.5,22c0.9,0.8,1.7,2.2,1.7,3.3c0.1,15.2,0.1,30.3,0.1,45.5
			c0,0.5-0.1,1-0.1,1.8C134.8,153,112.2,153,89.1,153z M126.1,144.9c0-1.5,0.1-2.4,0-3.2c-0.3-2.2,0.4-3.4,2.8-3.6
			c1.3-0.1,2.5-0.8,3.7-1.4c4.1-2.3,6-5.8,5.6-10.5c-0.4-4.3-3.2-6.4-6.8-7.8c-1.2-0.5-2.6-0.7-3.8-1.2c-0.6-0.2-1.4-0.9-1.4-1.3
			c-0.1-2.6-0.1-5.3-0.1-8.5c2.9,1,5.4,1.8,8.1,2.7c0.8-2,1.6-4,2.6-6.5c-3.8-1.1-7.2-2.1-10.9-3.2c0-1.6,0-3.3,0-5
			c-4.9-0.9-5.1-0.8-5.1,3.4c0,1.7-0.8,2.1-2.3,2.6c-2.2,0.7-4.4,1.5-6.3,2.8c-5,3.4-6,13.2,1.4,16.6c1.8,0.8,3.7,1.3,5.6,2.1
			c0.5,0.2,1.3,0.7,1.4,1.1c0.1,2.6,0.1,5.3,0.1,8.6c-3.8-1.4-7.1-2.5-10.5-3.7c-0.8,1.9-1.7,3.8-2.6,5.8c3.8,3,8.4,3.5,13,4.5
			c0.1,1.8-0.3,3.9,0.5,4.9C122,144.9,124.2,144.6,126.1,144.9z"/>
		<path class="st3" d="M170.9,99.6c-0.9,1-1.4,2.1-2.1,2.3c-1,0.2-2.4,0.1-3.1-0.5c-3.8-3.1-7.4-6.4-11.2-9.5
			c-9.4-8.1-18.9-16.1-28.3-24.2c-1.8-1.6-3.4-1.5-5.2,0.1c-11,9.4-22.1,18.7-33.1,28.1c-2.1,1.8-4.3,3.6-6.5,5.4
			c-1.5,1.3-3.1,1.6-4.3,0c-1.2-1.5-0.7-3.2,0.8-4.4c5.9-5,11.8-9.9,17.7-14.9c8.2-7,16.4-13.9,24.6-20.9c2.8-2.4,4-2.5,6.9-0.1
			c7.6,6.5,15,13,22.6,19.5c6.3,5.4,12.6,10.7,18.9,16.2C169.3,97.4,169.9,98.5,170.9,99.6z"/>
		<path class="st3" d="M157.6,77.3c-5.8-2.1-6-6.7-5.2-11.8c1.6,0,3.3,0,5.2,0C157.6,69.5,157.6,73.5,157.6,77.3z"/>
		<path class="st4" d="M126.1,144.9c-1.9-0.3-4.2,0-4.9-0.9c-0.8-1-0.4-3.1-0.5-4.9c-4.5-0.9-9.1-1.4-13-4.5c0.9-2,1.8-3.9,2.6-5.8
			c3.4,1.2,6.6,2.3,10.5,3.7c0-3.4,0.1-6-0.1-8.6c0-0.4-0.8-0.9-1.4-1.1c-1.8-0.7-3.8-1.3-5.6-2.1c-7.4-3.4-6.4-13.1-1.4-16.6
			c1.9-1.3,4.1-2.1,6.3-2.8c1.4-0.5,2.3-0.9,2.3-2.6c0-4.3,0.2-4.4,5.1-3.4c0,1.7,0,3.4,0,5c3.7,1.1,7.1,2.1,10.9,3.2
			c-1,2.5-1.8,4.6-2.6,6.5c-2.7-0.9-5.2-1.7-8.1-2.7c0,3.2-0.1,5.9,0.1,8.5c0,0.5,0.8,1.1,1.4,1.3c1.2,0.5,2.6,0.7,3.8,1.2
			c3.6,1.4,6.4,3.5,6.8,7.8c0.4,4.8-1.5,8.2-5.6,10.5c-1.2,0.6-2.4,1.3-3.7,1.4c-2.4,0.2-3.1,1.3-2.8,3.6
			C126.2,142.5,126.1,143.4,126.1,144.9z M120.8,115.3c0-2.6,0-5,0-7.4c-2.3,0.5-3.9,1.6-3.9,3.8C116.8,114,118.6,114.8,120.8,115.3
			z M126.2,131.8c2.1-0.6,3.8-1.5,3.7-3.8c-0.1-2.1-1.6-3-3.7-3.2C126.2,127.1,126.2,129.3,126.2,131.8z"/>
		<path class="st5" d="M120.8,115.3c-2.1-0.6-3.9-1.4-3.9-3.6c0-2.2,1.6-3.3,3.9-3.8C120.8,110.4,120.8,112.8,120.8,115.3z"/>
		<path class="st6" d="M126.2,131.8c0-2.5,0-4.7,0-7c2.1,0.2,3.6,1.2,3.7,3.2C130.1,130.3,128.4,131.2,126.2,131.8z"/>
	</g>
</g>
<g id="_x37_RlzZp.tif" class="st0">
	<g class="st1">
		<path class="st7" d="M70.5,102.4c0-1.7,0-3.3,0-5c3.4-3.4,6.6-7.1,10.3-10.2c13.6-11.5,27.4-22.9,41.2-34.3c1.7,0,3.3,0,5,0
			c2,1.5,4.2,2.9,6.1,4.6c3.9,3.2,7.7,6.6,11.6,9.9c0.5,0.4,1,0.7,1.9,1.3c0-2.2,0-4,0-5.7c0-2.4,1.2-3.6,3.5-3.6
			c3.8,0,7.7-0.1,11.5,0c2.7,0,3.5,1,3.5,3.7c0,6.5-0.1,13,0.1,19.5c0,1.3,0.8,2.9,1.7,3.8c2.4,2.3,5,4.4,7.5,6.6
			c3.4,3,4.3,6.8,2.8,10.6c-1.7,4-5,6.1-9.5,5.9c-0.7,0-1.5,0-2.6,0c0,1,0,2,0,3c0,14.4,0,28.8,0,43.2c0,4.1-0.6,4.8-4.8,4.8
			c-24,0-48,0-72,0c-4.5,0-5.2-0.6-5.2-5.2c0-14.2,0-28.3,0-42.5c0-1.1-0.1-2.1-0.2-3c-2.4-0.3-4.5-0.4-6.6-1
			C73.3,107.8,72,104.9,70.5,102.4z M124.6,74.8c-0.5,0.3-0.9,0.5-1.2,0.8c-10.9,9.3-21.9,18.5-32.7,27.8c-0.8,0.7-1.3,2.1-1.3,3.2
			c-0.1,14.9,0,29.8-0.1,44.7c0,2.4,0.8,2.9,3,2.9c9.4-0.1,18.8,0,28.2-0.1c7,0,14-0.3,21-0.3c5,0,10,0.1,15,0.4
			c2.2,0.1,2.8-0.7,2.8-2.9c-0.1-14.9-0.1-29.8,0-44.7c0-1.6-0.5-2.8-1.8-3.8c-6.7-5.7-13.4-11.5-20.1-17.2
			C133.1,82,128.8,78.4,124.6,74.8z M168.6,103.8c1-0.8,2.2-1.4,2.7-2.2c0.4-0.8,0.3-2.1-0.1-3c-0.4-0.9-1.4-1.6-2.2-2.3
			c-13.6-11.7-27.3-23.4-41-35.1c-3.1-2.7-4-2.7-7-0.1C108.1,72,95.2,82.9,82.3,93.9c-1.4,1.2-2.8,2.3-4.2,3.6
			c-1.8,1.6-2,3.4-0.6,4.8c1.5,1.5,3.1,1.4,4.7,0.2c0.7-0.5,1.3-1.1,1.9-1.6c12.2-10.4,24.5-20.8,36.7-31.2c3.1-2.6,4-2.6,7.1,0
			c12.5,10.7,25,21.5,37.6,32.2C166.4,102.5,167.4,103,168.6,103.8z M159.2,79.7c0-4,0-7.3,0-10.6c0-3.9,0-3.9-4-3.8
			c-0.8,0-2.2,0.3-2.2,0.5c0,2.9-0.5,6.1,0.4,8.7C154.1,76.4,156.8,77.7,159.2,79.7z"/>
		<path class="st8" d="M70.5,102.4c1.5,2.6,2.8,5.4,6,6.3c2,0.5,4.2,0.6,6.6,1c0,0.9,0.2,1.9,0.2,3c0,14.2,0,28.3,0,42.5
			c0,4.6,0.7,5.2,5.2,5.2c24,0,48,0,72,0c4.2,0,4.8-0.6,4.8-4.8c0-14.4,0-28.8,0-43.2c0-1,0-1.9,0-3c1.1,0,1.9,0,2.6,0
			c4.5,0.2,7.8-1.9,9.5-5.9c1.6-3.8,0.6-7.6-2.8-10.6c-2.5-2.2-5.2-4.2-7.5-6.6c-0.9-0.9-1.7-2.5-1.7-3.8c-0.2-6.5-0.1-13-0.1-19.5
			c0-2.7-0.9-3.7-3.5-3.7c-3.8-0.1-7.7,0-11.5,0c-2.3,0-3.5,1.2-3.5,3.6c0,1.7,0,3.5,0,5.7c-0.9-0.6-1.5-0.9-1.9-1.3
			c-3.9-3.3-7.7-6.6-11.6-9.9c-2-1.6-4.1-3-6.1-4.6c17.2,0,34.3,0,51.5,0c0,36,0,72,0,108c-36,0-72,0-108,0
			C70.5,141.4,70.5,121.9,70.5,102.4z"/>
		<path class="st3" d="M122,52.9c-13.7,11.4-27.5,22.7-41.2,34.3c-3.7,3.1-6.9,6.8-10.3,10.2c0-14.8,0-29.6,0-44.5
			C87.7,52.9,104.8,52.9,122,52.9z"/>
		<path class="st3" d="M124.6,74.8c4.3,3.6,8.5,7.2,12.7,10.8c6.7,5.7,13.4,11.5,20.1,17.2c1.3,1.1,1.8,2.2,1.8,3.8
			c-0.1,14.9-0.1,29.8,0,44.7c0,2.2-0.6,3-2.8,2.9c-5-0.2-10-0.4-15-0.4c-7,0-14,0.3-21,0.3c-9.4,0.1-18.8,0-28.2,0.1
			c-2.2,0-3.1-0.5-3-2.9c0.1-14.9,0-29.8,0.1-44.7c0-1.1,0.5-2.5,1.3-3.2c10.9-9.3,21.8-18.6,32.7-27.8
			C123.7,75.3,124.1,75.1,124.6,74.8z M128.6,147.9c3.6,2.1,4.4,2.1,7.4-0.4c0.4-0.3,1-0.5,1.5-0.5c3.9,0.3,6.1-1.7,5.9-5.6
			c0-0.7,0.6-1.5,0.8-2.3c0.4-1.6,1.6-3.8,1-4.7c-1.8-2.4-0.7-4.3,0.2-6.4c0.3-0.8,0.5-1.6,0.5-2.4c0.3-3,0.8-5.8,3.6-7.7
			c1.3-0.9,1.3-2.3,0.2-3.4c-4.1-4.1-8.2-8.3-12.4-12.3c-0.5-0.5-2.4-0.5-2.7-0.1c-2.2,3.1-5.3,3.7-8.7,3.8
			c-4.1,0.2-8.3,0.6-11.2-3.3c-1.3-1.6-2.5-1.5-3.9,0c-3.7,3.8-7.4,7.4-11.1,11.1c-2.3,2.3-2.4,2.7,0,4.8c1.8,1.6,2.7,3.3,2.8,5.7
			c0.1,2,1,4,1.4,6c0.2,0.9,0.3,1.9-0.1,2.6c-1.4,2.7-1.2,4.3,0.7,6.6c0.4,0.4,0.6,1.2,0.5,1.8c-0.4,3.7,2.2,6.3,5.8,5.8
			c0.5-0.1,1.2-0.1,1.4,0.1c2.4,3,5.1,2.6,7.8,0.7C123.5,150.7,124.9,150.7,128.6,147.9z"/>
		<path class="st8" d="M168.6,103.8c-1.2-0.8-2.2-1.3-3.1-2c-12.5-10.7-25-21.4-37.6-32.2c-3-2.6-4-2.6-7.1,0
			C108.7,80,96.4,90.4,84.2,100.8c-0.6,0.5-1.3,1.1-1.9,1.6c-1.6,1.3-3.2,1.4-4.7-0.2c-1.4-1.4-1.2-3.2,0.6-4.8
			c1.3-1.2,2.8-2.4,4.2-3.6C95.2,82.9,108.1,72,121,61.1c3.1-2.6,3.9-2.6,7,0.1c13.7,11.7,27.3,23.4,41,35.1
			c0.8,0.7,1.8,1.4,2.2,2.3c0.4,0.9,0.5,2.2,0.1,3C170.8,102.4,169.7,103,168.6,103.8z"/>
		<path class="st9" d="M159.2,79.7c-2.4-2.1-5-3.3-5.8-5.2c-1-2.6-0.5-5.8-0.4-8.7c0-0.2,1.4-0.5,2.2-0.5c4-0.1,4-0.1,4,3.8
			C159.2,72.4,159.2,75.7,159.2,79.7z"/>
		<path class="st10" d="M128.6,147.9c-3.7,2.8-5.1,2.8-8.6,0c-2.7,1.9-5.4,2.3-7.8-0.7c-0.2-0.3-0.9-0.2-1.4-0.1
			c-3.6,0.5-6.2-2.1-5.8-5.8c0.1-0.6-0.2-1.3-0.5-1.8c-1.9-2.3-2-4-0.7-6.6c0.4-0.7,0.3-1.8,0.1-2.6c-0.4-2-1.3-4-1.4-6
			c-0.1-2.5-1.1-4.2-2.8-5.7c-2.4-2.1-2.3-2.5,0-4.8c3.7-3.7,7.5-7.4,11.1-11.1c1.4-1.5,2.6-1.6,3.9,0c3,3.8,7.1,3.4,11.2,3.3
			c3.4-0.1,6.5-0.7,8.7-3.8c0.3-0.4,2.2-0.4,2.7,0.1c4.2,4,8.3,8.2,12.4,12.3c1.2,1.2,1.2,2.5-0.2,3.4c-2.8,1.9-3.3,4.7-3.6,7.7
			c-0.1,0.8-0.2,1.7-0.5,2.4c-0.8,2.1-1.9,4-0.2,6.4c0.6,0.9-0.6,3.1-1,4.7c-0.2,0.8-0.8,1.5-0.8,2.3c0.1,3.9-2,5.9-5.9,5.6
			c-0.5,0-1.1,0.2-1.5,0.5C133,150,132.2,150,128.6,147.9z M126.5,144.9c-2.6-2.4-5.2-4.6-7.6-7.1c-0.6-0.6-1.1-2.3-0.7-2.8
			c1-1.3,2.2-0.4,3.1,0.5c3,3.1,6,6.2,9.2,9.2c0.7,0.6,1.9,0.6,2.9,0.9c-0.3-0.9-0.3-2.1-0.9-2.8c-3-3.2-6.1-6.2-9.1-9.2
			c-0.9-0.9-2.1-1.8-0.8-3.1c1.3-1.3,2.2-0.1,3.1,0.8c3.8,3.8,7.5,7.6,11.3,11.3c0.6,0.6,1.8,0.7,2.7,1c-0.2-1-0.2-2.2-0.8-2.9
			c-3.7-3.9-7.6-7.7-11.3-11.6c-0.6-0.6-1-2.3-0.6-2.9c0.9-1.3,2-0.4,2.9,0.5c3.1,3.1,6.2,6.3,9.3,9.4c0.8,0.7,1.6,2.2,2.8,0.7
			c0.3-0.4-0.2-2-0.7-2.6c-4.1-4.3-8.3-8.4-12.5-12.6c-0.5-0.5-1.2-0.9-1.9-1c-5.5-0.4-5.5-0.4-9.7,3.8c-0.6,0.6-1.3,1.3-2,1.9
			c-1.8,1.6-3.8,1.8-5.8,0.5c-2-1.3-2.5-3.3-1.8-5.5c0.3-1,1.2-2,2-2.8c3-3,6.2-6,8.8-8.6c-2.2-1.6-3.9-2.9-5.7-4.1
			c-3.4,3.4-6.9,6.9-10.5,10.5c1,1,2.5,2,3,3.4c0.6,1.4,0,3.2,0.4,4.6c0.7,2.4,1.4,5.1,3,6.9c4.4,5.1,9.3,9.7,14.1,14.5
			C123.9,146.9,125,146.9,126.5,144.9z M135.6,105.4c-1.8,2.8-4.3,3.5-7.6,3.8c-2.8,0.2-5.7,1.8-8,3.5c-3.1,2.4-5.8,5.5-8.5,8.4
			c-0.5,0.5-0.4,1.6-0.6,2.5c0.9-0.2,1.9-0.1,2.5-0.6c2-1.8,3.7-3.8,5.7-5.5c0.7-0.6,2.1-1,3-0.8c2.8,0.6,5.4,0.4,7.8-1.4
			c0.6-0.4,1.7-0.2,2.5-0.2c-0.1,0.9-0.1,1.8-0.4,2.7c-0.1,0.4-0.8,0.7-1.1,1c3.5,3.5,6.9,6.9,10.7,10.6c0.4-2.4,1.1-4.6,1.1-6.9
			c0-2,0.5-3.5,2.1-4.8c0.6-0.4,1-1.1,1.4-1.6C142.8,112.6,139.4,109.1,135.6,105.4z M113.9,141.2c-1.3-1.1-1.9-1.6-3-2.6
			c-0.6,0.9-1.3,1.7-1.7,2.6c-0.3,0.7-0.2,1.5-0.3,2.2c0.7-0.1,1.5,0,2.2-0.3C111.9,142.7,112.7,142,113.9,141.2z"/>
		<path class="st8" d="M126.5,144.9c-1.5,2-2.6,2-3.7,0.9c-4.7-4.8-9.6-9.5-14.1-14.5c-1.6-1.8-2.3-4.5-3-6.9
			c-0.5-1.5,0.1-3.3-0.4-4.6c-0.6-1.4-2-2.3-3-3.4c3.6-3.6,7.1-7.1,10.5-10.5c1.8,1.3,3.6,2.6,5.7,4.1c-2.7,2.6-5.8,5.5-8.8,8.6
			c-0.8,0.8-1.7,1.8-2,2.8c-0.7,2.1-0.2,4.2,1.8,5.5c2,1.2,4,1,5.8-0.5c0.7-0.6,1.3-1.2,2-1.9c4.2-4.2,4.2-4.2,9.7-3.8
			c0.7,0,1.4,0.5,1.9,1c4.2,4.2,8.4,8.3,12.5,12.6c0.6,0.6,1.1,2.2,0.7,2.6c-1.1,1.4-2,0-2.8-0.7c-3.1-3.1-6.2-6.2-9.3-9.4
			c-0.9-0.9-1.9-1.8-2.9-0.5c-0.4,0.6,0,2.3,0.6,2.9c3.7,3.9,7.6,7.7,11.3,11.6c0.6,0.6,0.5,1.9,0.8,2.9c-0.9-0.3-2.1-0.4-2.7-1
			c-3.8-3.7-7.6-7.5-11.3-11.3c-0.9-0.9-1.8-2.1-3.1-0.8c-1.3,1.3-0.1,2.2,0.8,3.1c3,3.1,6.2,6.1,9.1,9.2c0.6,0.6,0.6,1.8,0.9,2.8
			c-1-0.3-2.2-0.3-2.9-0.9c-3.2-3-6.2-6.1-9.2-9.2c-0.9-1-2.1-1.9-3.1-0.5c-0.4,0.5,0.1,2.2,0.7,2.8
			C121.3,140.2,123.9,142.5,126.5,144.9z"/>
		<path class="st11" d="M135.6,105.4c3.8,3.7,7.2,7.2,10.8,10.8c-0.5,0.5-0.9,1.1-1.4,1.6c-1.6,1.2-2,2.7-2.1,4.8
			c0,2.2-0.7,4.5-1.1,6.9c-3.8-3.7-7.2-7.1-10.7-10.6c0.3-0.3,1-0.6,1.1-1c0.3-0.8,0.3-1.8,0.4-2.7c-0.9,0.1-2-0.2-2.5,0.2
			c-2.4,1.8-4.9,2-7.8,1.4c-0.9-0.2-2.3,0.2-3,0.8c-2,1.7-3.7,3.8-5.7,5.5c-0.6,0.5-1.7,0.4-2.5,0.6c0.2-0.8,0.1-1.9,0.6-2.5
			c2.7-2.9,5.4-6,8.5-8.4c2.3-1.7,5.2-3.3,8-3.5C131.3,108.9,133.8,108.2,135.6,105.4z"/>
		<path class="st6" d="M113.9,141.2c-1.2,0.8-2,1.5-2.9,1.9c-0.6,0.3-1.4,0.2-2.2,0.3c0.1-0.7,0-1.6,0.3-2.2
			c0.4-0.9,1.1-1.7,1.7-2.6C112,139.6,112.6,140.1,113.9,141.2z"/>
	</g>
</g>
<g id="Nt8aK6.tif" class="st0">
	<g class="st1">
		<path class="st2" d="M82,128.9c0-1.5,0-3,0-4.5c1.6-5.2,5.2-8,10.4-9.1c2.3-0.5,4.5-1.2,6.7-1.9c0.8-0.3,1.7-0.6,2.4-1.2
			c2.2-1.9,4.3-4,6.4-5.9c1.6-1.5,1.6-2.9,0.2-4.5c-2.6-3.1-4.8-6.6-5-10.6c-0.4-6.7-0.6-13.5,0-20.2c0.9-10.1,10.4-18.5,20-19
			c12.7-0.7,22,8.2,23.3,17.8c0.8,5.5,0.4,11.1,0.6,16.7c0.2,5.9-1.7,11.1-5.6,15.5c-1.3,1.5-1.2,2.8,0.2,4.1c1.6,1.5,3,3.2,4.7,4.5
			c1.7,1.3,3.6,2.6,5.6,3.3c2.9,1.1,6.1,1.7,9,2.7c5.1,1.8,7.7,6.7,6.7,11.9c-1.6,7.9-3,15.8-4.8,23.6c-0.6,2.8-0.5,5.9-2.9,8
			c-23.5,0-47,0-70.5,0c-0.6-1.2-1.5-2.4-1.8-3.7c-1-4.6-1.8-9.3-2.7-13.9C84.1,137.8,83,133.4,82,128.9z M127.9,76.9
			c-5.3,0-10.7,0-16,0c-0.9,0-1.9,0.3-2.8,0.5c0.1,4.1-0.1,8.3,0.5,12.4c1,7.3,7.5,12.8,14.8,13c7.2,0.2,14.5-4.7,15.5-11.8
			c0.9-6.4,0.2-13,0.2-19.5c-1.7,1.1-3.5,2.5-5.5,3.4C132.4,75.9,130.1,76.3,127.9,76.9z M131,153.5c0.6,0.1,1.1,0.4,1.7,0.4
			c7.1,0,14.3,0,21.4,0c0.6,0,1.2-0.4,1.9-0.5c1.7-8.6,3.5-17.2,5.3-25.8c0.5-2.7-0.3-4.3-2.9-5.2c-2.6-0.8-5.3-1.5-7.8-2.3
			c-1.6-0.5-2.5-0.1-3.4,1.3c-3.1,4.9-6.4,9.7-9.7,14.5c-1.7,2.5-3.4,2.6-5.6,0.7c-1.1-1-2.2-2.1-3.6-3.4c0,7.1,0,13.6,0,20.2
			C129.2,153.3,130.1,153.4,131,153.5z M121.4,133.9c-0.3-0.2-0.5-0.4-0.8-0.6c-0.6,0.8-1.1,1.7-1.8,2.4c-3.1,3.2-4.7,3-7.2-0.8
			c-3.1-4.7-6.2-9.4-9.5-14.1c-0.4-0.5-1.5-1-2.1-0.9c-3,0.7-5.9,1.6-8.8,2.5c-2.1,0.7-3.1,2.6-2.7,4.7c1.6,8,3.3,16,4.7,24.1
			c0.3,1.8,1,2.1,2.5,2.1c7.8-0.1,15.7,0,23.5,0c0.6,0,1.3-0.1,2-0.2C121.4,146.6,121.4,140.3,121.4,133.9z M137.3,64.7
			c-4-5.2-10.1-7.4-16-5.9c-6.3,1.6-10.1,5.6-11.8,12.1c5.2,0,10.1,0.1,14.9,0C129.6,70.8,133.9,68.8,137.3,64.7z M133.8,129.4
			c2-3,3.9-5.9,5.8-8.8c3.4-5.1,3.4-5.1-1.6-9c-0.1,0-0.2,0-0.4-0.1c-2.9,4.3-5.7,8.7-8.5,12.8C130.9,126.2,132.3,127.8,133.8,129.4
			z M120.6,124.5c-3-4.4-5.8-8.7-8.6-12.9c-1.8,1.6-3.3,3.1-4.9,4.6c2.9,4.4,5.8,8.7,8.6,12.9C117.3,127.6,118.9,126.1,120.6,124.5z
			 M118.1,108.9c2.2,3.3,4.4,6.6,6.8,10.2c2.5-3.7,4.7-7.1,6.8-10.2C127.2,108.9,122.7,108.9,118.1,108.9z"/>
		<path class="st3" d="M160,159.9c2.4-2.1,2.3-5.2,2.9-8c1.7-7.8,3.2-15.7,4.8-23.6c1-5.2-1.6-10-6.7-11.9c-2.9-1.1-6.1-1.6-9-2.7
			c-2-0.8-3.9-2-5.6-3.3c-1.7-1.3-3.1-3-4.7-4.5c-1.4-1.3-1.5-2.6-0.2-4.1c3.9-4.4,5.8-9.6,5.6-15.5c-0.2-5.6,0.2-11.2-0.6-16.7
			c-1.3-9.5-10.6-18.4-23.3-17.8c-9.6,0.5-19.1,8.9-20,19c-0.6,6.7-0.3,13.5,0,20.2c0.2,4,2.4,7.5,5,10.6c1.4,1.7,1.4,3.1-0.2,4.5
			c-2.1,2-4.2,4-6.4,5.9c-0.7,0.6-1.6,0.9-2.4,1.2c-2.2,0.7-4.4,1.5-6.7,1.9c-5.3,1.1-8.8,3.9-10.4,9.1c0-24.3,0-48.7,0-73
			c28.8,0,57.7,0,86.5,0c0,36.2,0,72.3,0,108.5C165.7,159.9,162.8,159.9,160,159.9z"/>
		<path class="st3" d="M82,128.9c1,4.5,2.1,8.9,3,13.4c1,4.6,1.7,9.3,2.7,13.9c0.3,1.3,1.2,2.5,1.8,3.7c-2.5,0-5,0-7.5,0
			C82,149.6,82,139.2,82,128.9z"/>
		<path class="st3" d="M131,153.5c-0.9-0.1-1.8-0.1-2.9-0.2c0-6.6,0-13.1,0-20.2c1.4,1.3,2.5,2.4,3.6,3.4c2.2,2,3.9,1.8,5.6-0.7
			c3.3-4.8,6.5-9.6,9.7-14.5c0.9-1.4,1.8-1.9,3.4-1.3c2.6,0.9,5.2,1.5,7.8,2.3c2.6,0.8,3.5,2.5,2.9,5.2c-1.8,8.6-3.5,17.2-5.3,25.8
			C147.7,153.4,139.3,153.4,131,153.5z"/>
		<path class="st3" d="M121.4,133.9c0,6.4,0,12.8,0,19.3c-0.7,0.1-1.4,0.2-2,0.2c-7.8,0-15.7,0-23.5,0c-1.6,0-2.2-0.3-2.5-2.1
			c-1.4-8.1-3.1-16.1-4.7-24.1c-0.4-2.2,0.5-4,2.7-4.7c2.9-1,5.9-1.8,8.8-2.5c0.6-0.1,1.7,0.4,2.1,0.9c3.2,4.6,6.3,9.4,9.5,14.1
			c2.5,3.8,4.1,4,7.2,0.8c0.7-0.7,1.2-1.6,1.8-2.4C120.9,133.5,121.2,133.7,121.4,133.9z"/>
		<path class="st3" d="M127.9,76.9c2.2-0.6,4.5-1,6.6-1.9c2-0.9,3.8-2.3,5.5-3.4c0,6.5,0.7,13.1-0.2,19.5c-1,7.1-8.3,12.1-15.5,11.8
			c-7.4-0.3-13.8-5.7-14.8-13c-0.6-4.1-0.4-8.3-0.5-12.4c4.6,0,9.1,0,13.7-0.1C124.5,77.3,126.2,77,127.9,76.9z"/>
		<path class="st3" d="M137.3,64.7c-3.4,4.2-7.7,6.1-12.9,6.2c-4.9,0.1-9.8,0-14.9,0c1.7-6.5,5.5-10.5,11.8-12.1
			C127.3,57.3,133.3,59.5,137.3,64.7z"/>
		<path class="st11" d="M133.8,129.4c-1.6-1.7-3-3.2-4.6-5c2.7-4.1,5.6-8.5,8.5-12.8c0.3,0,0.4,0,0.4,0.1c5,3.8,5,3.8,1.6,9
			C137.8,123.6,135.8,126.4,133.8,129.4z"/>
		<path class="st3" d="M120.6,124.5c-1.7,1.6-3.3,3.1-4.9,4.6c-2.8-4.2-5.7-8.5-8.6-12.9c1.6-1.5,3.2-3,4.9-4.6
			C114.8,115.8,117.6,120,120.6,124.5z"/>
		<path class="st11" d="M118.1,108.9c4.6,0,9.1,0,13.6,0c-2.1,3.1-4.3,6.5-6.8,10.2C122.5,115.5,120.2,112.2,118.1,108.9z"/>
		<path class="st12" d="M131,153.5c8.3-0.1,16.6-0.1,25-0.2c-0.6,0.2-1.2,0.5-1.9,0.5c-7.1,0-14.3,0-21.4,0
			C132.1,153.9,131.6,153.6,131,153.5z"/>
		<path class="st13" d="M127.9,76.9c-1.7,0.2-3.4,0.5-5.2,0.5c-4.6,0.1-9.1,0.1-13.7,0.1c0.9-0.2,1.9-0.5,2.8-0.5
			C117.2,76.9,122.6,76.9,127.9,76.9z"/>
	</g>
</g>
<g id="XTYkCa.tif" class="st0">
	<g class="st1">
		<path class="st7" d="M72.5,101.4c0-1.7,0-3.3,0-5c3.4-3.4,6.6-7.1,10.3-10.2c13.6-11.5,27.4-22.9,41.2-34.3c1.7,0,3.3,0,5,0
			c2,1.5,4.2,2.9,6.1,4.6c3.9,3.2,7.7,6.6,11.6,9.9c0.5,0.4,1,0.7,1.9,1.3c0-2.2,0-4,0-5.7c0-2.4,1.2-3.5,3.5-3.6
			c3.8,0,7.7-0.1,11.5,0c2.7,0,3.5,1,3.5,3.7c0,6.5-0.1,13,0.1,19.5c0,1.3,0.8,2.9,1.7,3.8c2.4,2.3,5,4.4,7.5,6.6
			c3.4,3,4.3,6.8,2.8,10.6c-1.7,4-5,6.1-9.5,5.9c-0.7,0-1.5,0-2.6,0c0,1,0,2,0,3c0,14.4,0,28.8,0,43.2c0,4.1-0.6,4.8-4.8,4.8
			c-24,0-48,0-72,0c-4.5,0-5.2-0.6-5.2-5.2c0-14.2,0-28.3,0-42.5c0-1.1-0.1-2.1-0.2-3c-2.4-0.3-4.5-0.4-6.6-1
			C75.3,106.8,74,103.9,72.5,101.4z M126.7,73.9c-0.5,0.2-0.6,0.2-0.8,0.3c-11.2,9.5-22.4,18.9-33.5,28.5c-0.6,0.5-1,1.7-1,2.6
			c-0.1,15.2,0,30.5-0.1,45.7c0,1.7,0.6,2.4,2.3,2.3c3.7-0.1,7.3-0.1,11,0c2,0.1,2.7-0.5,2.7-2.7c-0.1-8.2-0.1-16.3,0-24.5
			c0-3.6,0.8-4.4,4.4-4.4c9.7,0,19.5,0,29.2,0c3.5,0,4.2,0.8,4.2,4.3c0,8.2,0,16.5,0,24.7c0,1.8,0.5,2.6,2.4,2.5
			c3.7-0.1,7.5-0.1,11.2,0c1.9,0.1,2.4-0.7,2.4-2.5c-0.1-15.2,0-30.3-0.1-45.5c0-1.1-0.8-2.5-1.6-3.3c-2.7-2.5-5.5-4.8-8.3-7.2
			C143,87.8,134.9,80.9,126.7,73.9z M126.5,66.3c1.2,0.8,2.4,1.5,3.4,2.3c12.5,10.6,24.9,21.3,37.4,32c0.4,0.4,0.9,0.8,1.3,1.1
			c1.5,1,3,0.9,4.3-0.4c1.3-1.4,1.2-2.9,0-4.3c-0.6-0.7-1.3-1.3-2-1.9c-13.6-11.6-27.2-23.3-40.8-34.9c-3.2-2.7-4-2.8-7.2,0
			c-10.7,9.1-21.5,18.2-32.2,27.3c-3.6,3-7.1,6-10.6,9.1c-1.5,1.3-1.9,3-0.5,4.6c1.4,1.6,3.1,1.5,4.7,0.3c0.9-0.7,1.8-1.5,2.7-2.3
			c12.1-10.3,24.2-20.6,36.4-30.8C124.2,67.6,125.3,67,126.5,66.3z M139.2,140.4c0-3.4-0.1-6.8,0-10.2c0-1.7-0.4-2.4-2.2-2.4
			c-7.2,0.1-14.3,0.1-21.5,0c-1.8,0-2.3,0.7-2.2,2.4c0.1,6.9,0.1,13.8,0,20.7c0,1.6,0.4,2.4,2.2,2.4c7.2-0.1,14.3-0.1,21.5,0
			c1.8,0,2.3-0.8,2.2-2.4C139.1,147.4,139.2,143.9,139.2,140.4z M160.5,78.1c0.2-0.1,0.4-0.1,0.7-0.2c0-3.4,0-6.7,0-10.1
			c0-3.5,0-3.4-3.5-3.6c-2.4-0.1-3.3,0.7-3.1,3.1c0.2,1.4-0.1,2.8,0.1,4.2c0.1,0.8,0.3,1.7,0.8,2.2
			C157.1,75.3,158.8,76.7,160.5,78.1z"/>
		<path class="st8" d="M72.5,101.4c1.5,2.6,2.8,5.4,6,6.3c2,0.5,4.2,0.6,6.6,1c0,0.9,0.2,1.9,0.2,3c0,14.2,0,28.3,0,42.5
			c0,4.6,0.7,5.2,5.2,5.2c24,0,48,0,72,0c4.2,0,4.8-0.6,4.8-4.8c0-14.4,0-28.8,0-43.2c0-1,0-1.9,0-3c1.1,0,1.9,0,2.6,0
			c4.5,0.2,7.8-1.9,9.5-5.9c1.6-3.8,0.6-7.6-2.8-10.6c-2.5-2.2-5.2-4.2-7.5-6.6c-0.9-0.9-1.7-2.5-1.7-3.8c-0.2-6.5-0.1-13-0.1-19.5
			c0-2.7-0.9-3.7-3.5-3.7c-3.8-0.1-7.7,0-11.5,0c-2.3,0-3.5,1.2-3.5,3.6c0,1.7,0,3.5,0,5.7c-0.9-0.6-1.5-0.9-1.9-1.3
			c-3.9-3.3-7.7-6.6-11.6-9.9c-2-1.6-4.1-3-6.1-4.6c17.2,0,34.3,0,51.5,0c0,36,0,72,0,108c-36,0-72,0-108,0
			C72.5,140.4,72.5,120.9,72.5,101.4z"/>
		<path class="st3" d="M124,51.9c-13.7,11.4-27.5,22.7-41.2,34.3c-3.7,3.1-6.9,6.8-10.3,10.2c0-14.8,0-29.6,0-44.5
			C89.7,51.9,106.8,51.9,124,51.9z"/>
		<path class="st14" d="M126.7,73.9c8.2,7,16.3,14,24.5,21c2.8,2.4,5.6,4.7,8.3,7.2c0.8,0.8,1.6,2.2,1.6,3.3
			c0.1,15.2,0,30.3,0.1,45.5c0,1.8-0.5,2.5-2.4,2.5c-3.7-0.1-7.5-0.1-11.2,0c-1.9,0.1-2.4-0.7-2.4-2.5c0.1-8.2,0-16.5,0-24.7
			c0-3.5-0.7-4.3-4.2-4.3c-9.7,0-19.5,0-29.2,0c-3.6,0-4.4,0.8-4.4,4.4c0,8.2-0.1,16.3,0,24.5c0,2.1-0.7,2.7-2.7,2.7
			c-3.7-0.1-7.3-0.1-11,0c-1.7,0-2.3-0.6-2.3-2.3c0-15.2,0-30.5,0.1-45.7c0-0.9,0.4-2,1-2.6c11.1-9.5,22.3-19,33.5-28.5
			C126,74.1,126.2,74,126.7,73.9z M126.3,89.8c-3,0-6,0-9,0c-2.8,0-3.8,1-3.8,3.8c0,5.8-0.1,11.6,0,17.5c0,2.6,1.1,3.7,3.7,3.7
			c6.1,0.1,12.1,0.1,18.2,0c2.5,0,3.5-1.2,3.5-3.8c0-5.8,0-11.6,0-17.5c0-2.6-1-3.6-3.6-3.7C132.3,89.8,129.3,89.8,126.3,89.8z"/>
		<path class="st8" d="M126.5,66.3c-1.2,0.8-2.3,1.3-3.3,2.1C111.1,78.6,99,88.9,86.9,99.2c-0.9,0.8-1.8,1.5-2.7,2.3
			c-1.6,1.3-3.3,1.3-4.7-0.3c-1.4-1.6-1.1-3.3,0.5-4.6c3.5-3.1,7.1-6.1,10.6-9.1c10.7-9.1,21.5-18.2,32.2-27.3c3.2-2.7,4-2.7,7.2,0
			c13.6,11.6,27.2,23.3,40.8,34.9c0.7,0.6,1.4,1.2,2,1.9c1.2,1.4,1.3,2.9,0,4.3c-1.2,1.3-2.7,1.5-4.3,0.4c-0.5-0.3-0.9-0.7-1.3-1.1
			c-12.5-10.7-24.9-21.3-37.4-32C128.9,67.7,127.8,67.1,126.5,66.3z"/>
		<path class="st14" d="M139.2,140.4c0,3.5-0.1,7,0,10.5c0,1.6-0.4,2.4-2.2,2.4c-7.2-0.1-14.3-0.1-21.5,0c-1.8,0-2.3-0.7-2.2-2.4
			c0.1-6.9,0.1-13.8,0-20.7c0-1.7,0.4-2.4,2.2-2.4c7.2,0.1,14.3,0.1,21.5,0c1.8,0,2.3,0.7,2.2,2.4
			C139.1,133.6,139.2,137,139.2,140.4z M132.6,137.3c-0.2-1.9-1.1-3-3-3c-1.9,0-3,1.2-3,3c0,1.8,1.2,3,3,3
			C131.5,140.3,132.5,139.2,132.6,137.3z"/>
		<path class="st9" d="M160.5,78.1c-1.7-1.4-3.4-2.8-5-4.4c-0.5-0.5-0.7-1.4-0.8-2.2c-0.1-1.4,0.1-2.8-0.1-4.2
			c-0.3-2.4,0.7-3.2,3.1-3.1c3.5,0.2,3.5,0,3.5,3.6c0,3.4,0,6.7,0,10.1C160.9,78,160.7,78.1,160.5,78.1z"/>
		<path class="st15" d="M126.3,89.8c3,0,6,0,9,0c2.6,0.1,3.6,1.1,3.6,3.7c0,5.8,0,11.6,0,17.5c0,2.6-1,3.7-3.5,3.8
			c-6.1,0.1-12.1,0.1-18.2,0c-2.6,0-3.6-1.1-3.7-3.7c-0.1-5.8-0.1-11.6,0-17.5c0-2.7,1.1-3.7,3.8-3.8
			C120.4,89.8,123.4,89.8,126.3,89.8z M126.4,95.9c-0.4,0-0.8,0-1.2,0c-5.6,0-5.6,0-5.6,5.7c0,7.2,0,7.2,7.2,7.2
			c6.2,0,6.2,0,6.2-6.3C133,95.9,133,95.9,126.4,95.9z"/>
		<path class="st16" d="M132.6,137.3c-0.1,1.9-1.1,3-3,3c-1.8,0-3-1.2-3-3c0-1.8,1.1-3,3-3C131.5,134.4,132.4,135.5,132.6,137.3z"/>
		<path class="st17" d="M126.4,95.9c6.6,0,6.6,0,6.6,6.5c0,6.3,0,6.3-6.2,6.3c-7.2,0-7.2,0-7.2-7.2c0-5.7,0-5.7,5.6-5.7
			C125.6,95.9,126,95.9,126.4,95.9z"/>
	</g>
</g>
<g id="q8g3AY.tif">
	<g>
		<path class="st3" d="M68,96.4c0-15.2,0-30.3,0-45.5c39,0,78,0,117,0c0,36.5,0,73,0,109.5c-34,0-68,0-102,0c1.3-0.5,2.6-1.3,4-1.4
			c6.1-0.8,11-4,15.6-7.5c1.5-1.2,2.5-1.2,4.2-0.7c6.4,2.1,13,3,19.8,2.9c7-0.1,13.8-1.5,20.5-3.7c8.8-2.9,16.6-7.5,23.1-14
			c4.7-4.8,8.5-10.2,11-16.5c3-7.8,4.3-15.7,2.8-24c-2.6-13.9-9.8-24.8-21.5-32.7c-4.3-2.9-8.9-5.4-13.9-7.1
			c-4.6-1.6-9.2-2.6-13.9-3.3c-0.4-0.2-0.8-0.5-1.3-0.6c-6.5-0.8-12.9-0.7-19.3,0.7c-2.4,0.6-4.7,1.2-7.1,1.9
			c-1.8,0.7-3.7,1.4-5.5,2c-1.8,0.8-3.7,1.7-5.5,2.5c-0.2,0.1-0.3,0.1-0.5,0.2c-0.2,0.1-0.3,0.2-0.5,0.3c0,0,0,0,0,0
			c-0.3,0.2-0.6,0.3-0.9,0.5C82.7,66.2,75,75.5,70.4,87.6C69.4,90.4,68.8,93.4,68,96.4z"/>
		<path class="st18" d="M68,96.4c0.8-3,1.4-6,2.4-8.8C75,75.5,82.7,66.2,94,59.9c0.3-0.2,0.6-0.3,0.9-0.5c0,0,0,0,0,0
			c0.2-0.1,0.3-0.2,0.5-0.3c0.2-0.1,0.3-0.1,0.5-0.2c0.6,0.3,1.2,0.8,1.9,1c1.8,0.6,3.7,0.8,4.2,3.1c-1.2,0.6-2.5,1.2-3.6,2
			c-6.3,4.4-12.4,8.8-16.7,15.4c-4.8,7.4-7.3,15.3-6.8,24.2c0.6,9.3,3.9,17.5,10.2,24.5c1.3,1.5,2.4,3.4,2.9,5.3
			c1.4,5.7,0.7,11.4-1.9,16.7c-0.2,0.4-0.3,1-0.4,1.5c5.9-1.5,10.5-4.5,14.6-8.5c1.4-1.4,3-1.6,4.8-0.9c2.8,0.9,5.5,1.8,8.3,2.6
			c5.8,1.3,11.7,1.5,17.6,1c1.5-0.2,2.9-0.2,4.4-0.5c8.2-1.8,16.1-4.4,23-9.5c13.9-10.3,21.3-23.5,18.5-41.1
			C175.3,85,169.4,76.5,161,70c-9.8-7.5-21-11.6-33.5-11.7c-0.5-0.6-1-1.1-1.5-1.7c1-1.6,2-3.2,3-4.7c1.8,0.1,3.7,0.3,5.5,0.4
			c4.7,0.7,9.4,1.7,13.9,3.3c5,1.8,9.6,4.2,13.9,7.1c11.7,7.9,18.9,18.9,21.5,32.7c1.5,8.2,0.2,16.2-2.8,24
			c-2.5,6.4-6.3,11.8-11,16.5c-6.5,6.6-14.3,11.1-23.1,14c-6.7,2.2-13.5,3.5-20.5,3.7c-6.7,0.1-13.3-0.9-19.8-2.9
			c-1.6-0.5-2.7-0.5-4.2,0.7c-4.6,3.6-9.5,6.8-15.6,7.5c-1.4,0.2-2.7,0.9-4,1.4c-2,0-4,0-6,0c-2.7-2.1-3-3.9-0.7-6.5
			c2.5-2.9,4.5-6,4.9-9.8c0.5-4.2,1.2-8.4-2.4-12.1c-3.7-3.8-6.3-8.6-7.9-13.8c-1.1-3.4-1.9-6.9-2.9-10.4C68,104.1,68,100.2,68,96.4
			z"/>
		<path class="st3" d="M68,107.9c0.9,3.5,1.8,7,2.9,10.4c1.6,5.2,4.2,10,7.9,13.8c3.6,3.7,2.9,7.9,2.4,12.1c-0.4,3.8-2.4,7-4.9,9.8
			c-2.2,2.5-2,4.3,0.7,6.5c-3,0-6,0-9,0C68,142.9,68,125.4,68,107.9z"/>
		<path class="st19" d="M129,51.9c-1,1.5-2,3.1-3,4.7c0.5,0.6,1,1.1,1.5,1.7c-5.6,0.6-11.3,1.2-16.9,1.8c-0.8-0.4-1.6-0.9-2.4-1.2
			c-2.2-0.9-4.5-1.7-6.7-2.5c1.8-0.7,3.7-1.4,5.5-2c0.5,0.5,0.9,1.3,1.6,1.6c4.9,2,9.1,0.1,13.3-2.3c0.4-0.2,0.5-1.1,0.7-1.7
			C124.7,51.9,126.8,51.9,129,51.9z"/>
		<path class="st20" d="M122.5,51.9c-0.2,0.6-0.3,1.5-0.7,1.7c-4.1,2.3-8.4,4.2-13.3,2.3c-0.6-0.3-1.1-1.1-1.6-1.6
			c2.4-0.6,4.7-1.2,7.1-1.9c0.8,0.1,1.5,0.3,2.3,0.2C118.4,52.5,120.4,52.2,122.5,51.9z"/>
		<path class="st21" d="M101.5,56.4c2.2,0.8,4.5,1.7,6.7,2.5c0.8,0.3,1.6,0.8,2.4,1.2c-2.8,1-5.7,1.9-8.5,2.9
			c-0.5-2.3-2.4-2.5-4.2-3.1c-0.7-0.2-1.2-0.7-1.9-1C97.8,58,99.6,57.2,101.5,56.4z"/>
		<path class="st22" d="M122.5,51.9c-2.1,0.3-4.1,0.6-6.2,0.8c-0.7,0.1-1.5-0.2-2.3-0.2c6.4-1.3,12.8-1.4,19.3-0.7
			c0.4,0.1,0.8,0.4,1.3,0.6c-1.8-0.1-3.7-0.3-5.5-0.4C126.8,51.9,124.7,51.9,122.5,51.9z"/>
		<path class="st21" d="M95,59.4c-0.3,0.2-0.6,0.3-0.9,0.5C94.3,59.7,94.7,59.6,95,59.4z"/>
		<path class="st21" d="M95.5,59c-0.2,0.1-0.3,0.2-0.5,0.3C95.2,59.3,95.3,59.1,95.5,59z"/>
		<path class="st3" d="M102,63c2.8-1,5.7-1.9,8.5-2.9c5.6-0.6,11.3-1.2,16.9-1.8C140,58.4,151.3,62.5,161,70
			c8.4,6.5,14.2,15,15.9,25.7c2.8,17.7-4.7,30.9-18.5,41.1c-6.9,5.1-14.8,7.7-23,9.5c-1.4,0.3-2.9,0.3-4.4,0.5
			c-0.9-0.1-1.9-0.3-2.8-0.4c-3.9-0.2-7.9-0.4-11.8-0.6c-1,0-2,0-3,0c-2.8-0.9-5.5-1.7-8.3-2.6c-1.8-0.6-3.4-0.4-4.8,0.9
			c-4.1,4-8.7,7-14.6,8.5c0.2-0.6,0.2-1.1,0.4-1.5c2.6-5.4,3.3-11,1.9-16.7c-0.5-1.9-1.6-3.9-2.9-5.3c-6.3-7-9.6-15.1-10.2-24.5
			c-0.6-8.9,2-16.8,6.8-24.2c4.3-6.6,10.5-11,16.7-15.4C99.6,64.2,100.8,63.6,102,63z M88.5,102.3c0,5.5,3.7,10.4,10.3,10.4
			c6.4,0,9.6-4.2,10.2-10.3c0.5-5.3-4.8-10.1-10.3-10C92.6,92.6,88.5,96.6,88.5,102.3z M143.5,102.4c-0.3,5,3.9,10.4,10.3,10.4
			c5.5,0.1,10.5-5.1,10.2-10.5c-0.3-5.7-3.8-9.8-10.3-9.7C147.2,92.7,143.7,96.7,143.5,102.4z M136,102.5c0.3-5.2-4-10-9.8-10
			c-5.8,0-10.1,2.7-10.5,9.8c-0.4,5.8,3.9,10.1,10.2,10.6C131.5,113.2,135.7,108.7,136,102.5z"/>
		<path class="st23" d="M113.4,145.8c1,0,2,0,3,0c3.9,0.2,7.9,0.4,11.8,0.6c0.9,0.1,1.9,0.3,2.8,0.4
			C125.1,147.4,119.3,147.2,113.4,145.8z"/>
		<path class="st24" d="M88.5,102.3c0-5.7,4.1-9.7,10.2-9.9c5.5-0.1,10.7,4.7,10.3,10c-0.5,6.1-3.8,10.2-10.2,10.3
			C92.2,112.8,88.5,107.8,88.5,102.3z M98.4,99.4c-2.1-0.3-3.3,1.4-3.1,2.9c0.1,1.4,1.6,3.2,2.9,3.8c1.5,0.7,3.8-1.8,3.8-3.7
			C102,100.5,100.7,99.4,98.4,99.4z"/>
		<path class="st24" d="M143.5,102.4c0.2-5.7,3.7-9.7,10.2-9.8c6.4-0.1,9.9,3.9,10.3,9.7c0.3,5.4-4.7,10.6-10.2,10.5
			C147.3,112.7,143.2,107.3,143.5,102.4z M153.3,99.4c-2.3-0.3-3.1,1.4-2.6,3.2c0.3,1.3,1.6,3,2.8,3.4c1.6,0.6,3.6-1.6,3.6-3.5
			C157,100.4,155.8,99.4,153.3,99.4z"/>
		<path class="st24" d="M136,102.5c-0.3,6.1-4.6,10.7-10.1,10.3c-6.4-0.4-10.6-4.7-10.2-10.6c0.4-7,4.7-9.8,10.5-9.8
			C132,92.5,136.3,97.3,136,102.5z M122.1,103.2c1.1,1,2.1,2.5,3.4,3c1.5,0.5,3.9-2.1,3.9-3.8c0-1.8-1.5-3-3.6-3
			C123.9,99.4,122.6,100.8,122.1,103.2z"/>
		<path class="st25" d="M98.4,99.4c2.4,0,3.6,1.1,3.6,3.1c0,1.9-2.3,4.4-3.8,3.7c-1.3-0.6-2.8-2.4-2.9-3.8
			C95.1,100.8,96.3,99,98.4,99.4z"/>
		<path class="st9" d="M153.3,99.4c2.5,0,3.7,1.1,3.7,3.1c0,1.9-2,4.1-3.6,3.5c-1.2-0.5-2.5-2.1-2.8-3.4
			C150.2,100.8,151,99.1,153.3,99.4z"/>
		<path class="st26" d="M122.1,103.2c0.4-2.4,1.8-3.8,3.7-3.8c2.1-0.1,3.5,1.2,3.6,3c0,1.7-2.4,4.3-3.9,3.8
			C124.2,105.7,123.3,104.2,122.1,103.2z"/>
	</g>
</g>
</svg>
